<svg xmlns="http://www.w3.org/2000/svg" width="852.899" height="287.045" viewBox="0 0 852.899 287.045">
  <g id="Grupo_67" data-name="Grupo 67" transform="translate(-1243.101 926.963)">
    <text id="ulterior" transform="translate(1622 -743)" fill="#f8f8f8" font-size="114" font-family="Gugi-Regular, Gugi" letter-spacing="0.1em"><tspan x="0" y="0">ulterior</tspan></text>
    <g id="Grupo_66" data-name="Grupo 66" transform="translate(1245.601 -924.266)">
      <path id="Trazado_3" data-name="Trazado 3" d="M0-42.177,75.01-72.6V13.557L0,44.232Z" transform="translate(83.391 106.906)" fill="none" stroke="#55469e" stroke-linecap="square" stroke-width="5"/>
      <path id="Trazado_5" data-name="Trazado 5" d="M0-42.177,75.01-72.6V13.557L0,44.232Z" transform="translate(253.526 106.906)" fill="none" stroke="#cafe01" stroke-linecap="square" stroke-width="5"/>
      <path id="Trazado_8" data-name="Trazado 8" d="M0-42.177,75.01-72.6V13.557L0,44.232Z" transform="translate(168.04 235.974)" fill="none" stroke="#fd0" stroke-linecap="square" stroke-width="5"/>
      <path id="Trazado_4" data-name="Trazado 4" d="M75.01-42.177,0-72.6V13.557L75.01,44.232Z" transform="translate(170.135 106.906)" fill="none" stroke="#b3439e" stroke-linecap="square" stroke-width="5"/>
      <path id="Trazado_6" data-name="Trazado 6" d="M75.01-42.177,0-72.6V13.557L75.01,44.232Z" transform="translate(0 106.906)" fill="none" stroke="#ff8e46" stroke-linecap="square" stroke-width="5"/>
      <path id="Trazado_7" data-name="Trazado 7" d="M75.01-42.177,0-72.6V13.557L75.01,44.232Z" transform="translate(85.068 236.393)" fill="none" stroke="#fffa00" stroke-linecap="square" stroke-width="5"/>
      <path id="Trazado_9" data-name="Trazado 9" d="M-.7-38.671l71.365-28.8,70.128,28.482L70.224-10.217Z" transform="translate(93.855 196.954)" fill="none" stroke="#f33c83" stroke-linecap="square" stroke-width="5"/>
      <path id="Trazado_10" data-name="Trazado 10" d="M-.7-38.671l71.365-28.8,70.128,28.482L70.224-10.217Z" transform="translate(179.342 67.467)" fill="none" stroke="#b1c821" stroke-linecap="square" stroke-width="5"/>
      <path id="Trazado_11" data-name="Trazado 11" d="M-.7-38.671l71.365-28.8,70.128,28.482L70.224-10.217Z" transform="translate(9.207 67.467)" fill="none" stroke="#ff5f46" stroke-linecap="square" stroke-width="5"/>
    </g>
  </g>
</svg>
