<svg xmlns="http://www.w3.org/2000/svg" width="850.395" height="280.625" viewBox="0 0 850.395 280.625">
  <g id="Grupo_70" data-name="Grupo 70" transform="translate(-3101.605 924.266)">
    <g id="Grupo_69" data-name="Grupo 69" transform="translate(3101.605 -924.266)">
      <path id="Trazado_3" data-name="Trazado 3" d="M0-42.177,75.01-72.6V13.557L0,44.232Z" transform="translate(83.391 106.906)" fill="#55469e"/>
      <path id="Trazado_5" data-name="Trazado 5" d="M0-42.177,75.01-72.6V13.557L0,44.232Z" transform="translate(253.526 106.906)" fill="#cafe01"/>
      <path id="Trazado_8" data-name="Trazado 8" d="M0-42.177,75.01-72.6V13.557L0,44.232Z" transform="translate(168.04 235.974)" fill="#fd0"/>
      <path id="Trazado_4" data-name="Trazado 4" d="M75.01-42.177,0-72.6V13.557L75.01,44.232Z" transform="translate(170.135 106.906)" fill="#b3439e"/>
      <path id="Trazado_6" data-name="Trazado 6" d="M75.01-42.177,0-72.6V13.557L75.01,44.232Z" transform="translate(0 106.906)" fill="#ff8e46"/>
      <path id="Trazado_7" data-name="Trazado 7" d="M75.01-42.177,0-72.6V13.557L75.01,44.232Z" transform="translate(85.068 236.393)" fill="#fffa00"/>
      <path id="Trazado_9" data-name="Trazado 9" d="M-.7-38.671l71.365-28.8,70.128,28.482L70.224-10.217Z" transform="translate(93.855 196.954)" fill="#f33c83"/>
      <path id="Trazado_10" data-name="Trazado 10" d="M-.7-38.671l71.365-28.8,70.128,28.482L70.224-10.217Z" transform="translate(179.342 67.467)" fill="#b1c821"/>
      <path id="Trazado_11" data-name="Trazado 11" d="M-.7-38.671l71.365-28.8,70.128,28.482L70.224-10.217Z" transform="translate(9.207 67.467)" fill="#ff5f46"/>
    </g>
    <text id="ulterior" transform="translate(3478 -743)" fill="#232323" font-size="114" font-family="Gugi-Regular, Gugi" letter-spacing="0.1em"><tspan x="0" y="0">ulterior</tspan></text>
  </g>
</svg>
